<?xml version="1.0" encoding="UTF-8"?>
<svg version="1.1" xmlns="http://www.w3.org/2000/svg" width="783" height="319">
<path d="M0 0 C0.97299156 4.85729645 1.12038805 9.4500625 1.0625 14.375 C1.05798828 15.11105469 1.05347656 15.84710938 1.04882812 16.60546875 C1.03715142 18.40368158 1.01922011 20.20185197 1 22 C-0.91571922 22.31825658 -2.83265417 22.62919439 -4.75 22.9375 C-5.81734375 23.11152344 -6.8846875 23.28554687 -7.984375 23.46484375 C-29.99207279 26.63402169 -52.81314351 26.33878566 -75 26 C-75.97646484 25.98743164 -76.95292969 25.97486328 -77.95898438 25.96191406 C-93.64028292 25.7112997 -109.20123259 24.47852762 -124.8125 23.0625 C-125.75943726 22.97713989 -126.70637451 22.89177979 -127.68200684 22.80383301 C-153.87863459 20.42004787 -153.87863459 20.42004787 -160 19 C-160.33 18.34 -160.66 17.68 -161 17 C-141.48345868 14.137815 -121.88531643 12.0453996 -102.27832031 9.91965866 C-98.61932534 9.52266827 -94.960519 9.12395375 -91.30170631 8.72528744 C-83.15991256 7.83820268 -75.017819 6.95391878 -66.87548828 6.07177734 C-59.59621619 5.28305458 -52.31773183 4.48752628 -45.03977966 3.68670654 C-40.66628146 3.20617291 -36.29232453 2.72994289 -31.91818237 2.25531006 C-29.9976835 2.04615457 -28.07736841 1.83530343 -26.15725708 1.62261963 C-17.42040964 0.6564503 -8.80670323 -0.27972111 0 0 Z " fill="#20A6A9" transform="translate(232,148)"/>
<path d="M0 0 C-0.47213795 6.92468988 -3.13021122 12.7401208 -6 19 C-6.38285156 19.86882812 -6.76570312 20.73765625 -7.16015625 21.6328125 C-9.49405245 26.4271891 -11.6124511 29.12287311 -16.5859375 31.171875 C-17.38257813 31.44515625 -18.17921875 31.7184375 -19 32 C-19.96164063 32.33515625 -20.92328125 32.6703125 -21.9140625 33.015625 C-34.67413475 37.1758432 -47.68380223 39.50766749 -61 41 C-62.010625 41.1134375 -63.02125 41.226875 -64.0625 41.34375 C-91.62326741 43.92757194 -119.28959812 41.00380089 -146 34 C-147.25425781 33.67386719 -148.50851563 33.34773438 -149.80078125 33.01171875 C-152.20902049 32.36605359 -154.60824788 31.70379309 -157 31 C-157 30.34 -157 29.68 -157 29 C-156.13238037 29.01571045 -155.26476074 29.0314209 -154.37084961 29.04760742 C-102.32269527 29.85749598 -51.98303361 21.87115927 -4.046875 0.8125 C-2 0 -2 0 0 0 Z " fill="#1FA7AA" transform="translate(230,189)"/>
<path d="M0 0 C3.44741527 0.05331055 5.20818299 0.11065036 7.84375 2.390625 C9.72497011 5.07047629 11.29864123 7.81664793 12.875 10.6875 C13.6773627 12.02589069 14.48634468 13.36032826 15.30078125 14.69140625 C17.52789022 18.33643264 19.70988653 22.00533424 21.875 25.6875 C26.91841539 23.98622814 31.1222469 21.11374923 35.5625 18.25 C37.26281563 17.1728531 38.96334179 16.09603845 40.6640625 15.01953125 C44.05615549 12.86167426 47.42144475 10.66874488 50.7734375 8.44921875 C52.32782486 7.44484784 53.88250079 6.44092335 55.4375 5.4375 C56.13770264 4.95998291 56.83790527 4.48246582 57.55932617 3.99047852 C63.03092266 0.50432863 67.46182225 0.12111994 73.875 0.6875 C73.28062486 6.02580099 71.47847519 10.31944202 69.27734375 15.1484375 C68.92362198 15.93900543 68.56990021 16.72957336 68.20545959 17.5440979 C67.08100742 20.05322759 65.94692388 22.5578653 64.8125 25.0625 C64.04558265 26.76924323 63.27929964 28.47627164 62.51367188 30.18359375 C60.64260621 34.3554823 58.75856396 38.52114996 56.875 42.6875 C48.625 42.6875 40.375 42.6875 31.875 42.6875 C33 35.9375 33 35.9375 34.9375 32.3125 C35.29972656 31.62414062 35.66195312 30.93578125 36.03515625 30.2265625 C36.31230469 29.71867187 36.58945312 29.21078125 36.875 28.6875 C34.33261841 30.26969472 31.79108077 31.85321847 29.25 33.4375 C28.53714844 33.8809375 27.82429688 34.324375 27.08984375 34.78125 C26.38730469 35.21953125 25.68476563 35.6578125 24.9609375 36.109375 C24.2606543 36.54185547 23.56037109 36.97433594 22.83886719 37.41992188 C21.11694589 38.53133602 19.47538335 39.76524099 17.8515625 41.015625 C14.59174634 42.84659786 12.51566063 43.45936278 8.81542969 43.26123047 C4.97451168 42.12557907 3.15569596 38.93708498 1 35.75 C-1.9665231 31.0648798 -1.9665231 31.0648798 -6.125 27.6875 C-6.30675781 28.26757812 -6.48851562 28.84765625 -6.67578125 29.4453125 C-8.1668106 34.07897293 -9.80833576 38.38512355 -12.125 42.6875 C-16.085 42.6875 -20.045 42.6875 -24.125 42.6875 C-21.76237459 34.96794961 -18.55059386 27.8021415 -15.125 20.5 C-14.32449219 18.77620117 -14.32449219 18.77620117 -13.5078125 17.01757812 C-5.81011968 0.48285736 -5.81011968 0.48285736 0 0 Z " fill="#1C285B" transform="translate(365.125,137.3125)"/>
<path d="M0 0 C0.80395203 -0.00100708 1.60790405 -0.00201416 2.43621826 -0.00305176 C41.26767132 0.02894624 80.07547408 3.39145035 118.6875 7.25 C118.6875 7.91 118.6875 8.57 118.6875 9.25 C115.27757145 10.95496428 111.38125297 10.91791475 107.625 11.30859375 C106.65081619 11.41328476 105.67663239 11.51797577 104.67292786 11.62583923 C102.50401979 11.85861684 100.33492569 12.08966554 98.16567993 12.3192749 C92.05100597 12.96661819 85.93766769 13.62636047 79.82421875 14.28515625 C79.14844976 14.35782715 78.47268078 14.43049805 77.77643394 14.50537109 C64.56202486 15.92692209 51.3529469 17.39500333 38.14453125 18.87109375 C36.09528742 19.09992174 34.04604222 19.32873745 31.99679565 19.55754089 C23.77218611 20.47609829 15.547621 21.39503979 7.32348633 22.31784058 C2.41573298 22.86848286 -2.49224498 23.41708043 -7.4003849 23.96426582 C-9.23267851 24.16895458 -11.06488306 24.37444226 -12.89699364 24.58076286 C-15.4209371 24.86492983 -17.94516703 25.14640518 -20.46948242 25.42724609 C-21.21037109 25.51133948 -21.95125977 25.59543287 -22.71459961 25.68207455 C-25.94836217 26.03924979 -29.05240982 26.25 -32.3125 26.25 C-31.92585336 17.68577691 -30.17199272 8.96898544 -26.3125 1.25 C-17.91962907 -0.73718667 -8.59120406 0.00757936 0 0 Z " fill="#482917" transform="translate(63.3125,128.75)"/>
<path d="M0 0 C7.73858204 0.58534325 15.09214012 2.35649 22.60708618 4.2088623 C48.15843692 10.47834286 73.90910427 14.6673542 100 18 C100.85255371 18.11472656 101.70510742 18.22945312 102.58349609 18.34765625 C118.96066038 20.54192545 135.50219177 20.63676176 152 21 C152.33 21.66 152.66 22.32 153 23 C141.38661144 25.42878989 129.81906262 27.82063547 118 29 C117.11151367 29.09023437 116.22302734 29.18046875 115.30761719 29.2734375 C82.27060037 32.48702836 48.9049071 31.88991604 16 27.5625 C15.12674072 27.45252686 14.25348145 27.34255371 13.35375977 27.22924805 C12.15771118 27.05582886 12.15771118 27.05582886 10.9375 26.87890625 C10.24527344 26.7816626 9.55304687 26.68441895 8.83984375 26.58422852 C6.53526293 25.85242625 5.52034667 24.85923958 4 23 C1.32868407 15.60250974 0.44583608 7.8098183 0 0 Z " fill="#482917" transform="translate(30,172)"/>
<path d="M0 0 C1.01308228 0.00027191 2.02616455 0.00054382 3.06994629 0.00082397 C16.76319945 0.01772222 30.37755771 0.07797445 43.97460938 1.88427734 C46.4535204 2.20579024 48.93491838 2.45597156 51.421875 2.70703125 C64.32563781 4.18012127 64.32563781 4.18012127 68.375 8.3125 C69.7890625 10.3984375 69.7890625 10.3984375 71.3125 13.1875 C71.68729492 13.83750977 72.06208984 14.48751953 72.44824219 15.15722656 C74.57301248 18.84969281 76.63282396 22.57514865 78.58984375 26.359375 C78.92234131 26.9997168 79.25483887 27.64005859 79.59741211 28.29980469 C80.3125 30.1875 80.3125 30.1875 80.3125 34.1875 C71.34225372 32.12434335 62.40009122 29.96847884 53.47753906 27.70727539 C47.42805476 26.17821608 41.37145146 24.67855061 35.3125 23.1875 C33.73227051 22.79643066 33.73227051 22.79643066 32.12011719 22.39746094 C16.67738811 18.62410216 1.12658838 15.88333562 -14.5625 13.375 C-15.51406982 13.22184326 -16.46563965 13.06868652 -17.44604492 12.91088867 C-32.48170546 10.50606644 -47.27601427 9.15415278 -62.5 8.625 C-63.68142578 8.58181641 -64.86285156 8.53863281 -66.08007812 8.49414062 C-68.94914334 8.38959979 -71.81827058 8.28741382 -74.6875 8.1875 C-75.0175 7.5275 -75.3475 6.8675 -75.6875 6.1875 C-68.38971538 4.60624606 -61.10053217 3.50396053 -53.6875 2.625 C-52.69105469 2.49931641 -51.69460937 2.37363281 -50.66796875 2.24414062 C-33.82356307 0.22069315 -16.94644844 -0.01716632 0 0 Z " fill="#1FA7AA" transform="translate(146.6875,99.8125)"/>
<path d="M0 0 C2.6553821 2.38728318 4.18317355 5.25879391 5.875 8.375 C6.37112793 9.22465332 6.86725586 10.07430664 7.37841797 10.94970703 C8.4162536 12.72758743 9.44164591 14.51278442 10.45507812 16.3046875 C12.89740032 20.56562888 15.52418326 24.70970396 18.125 28.875 C19.02849404 30.32759625 19.92727248 31.78314094 20.8203125 33.2421875 C21.38129639 34.15266846 21.38129639 34.15266846 21.95361328 35.08154297 C23.1749721 37.32079579 24.09192459 39.61867619 25 42 C-1.35746254 45.50746058 -1.35746254 45.50746058 -8.79394531 39.88916016 C-13.24466273 34.64510379 -16.25414789 28.69588157 -18.86621094 22.36010742 C-19.98211117 20.03723757 -21.07061696 18.67728716 -23 17 C-23.51385254 17.34256836 -24.02770508 17.68513672 -24.55712891 18.03808594 C-32.03808594 23.02539062 -39.51904297 28.01269531 -47 33 C-37.43 33.33 -27.86 33.66 -18 34 C-20 40 -20 40 -21 42 C-37.17 42 -53.34 42 -70 42 C-67.68607114 37.37214228 -65.09219986 35.89173397 -60.8125 33.375 C-59.3477595 32.48765299 -57.88424431 31.59828063 -56.421875 30.70703125 C-55.3090918 30.03148193 -55.3090918 30.03148193 -54.17382812 29.34228516 C-50.91487035 27.32995925 -47.73693318 25.20484725 -44.5625 23.0625 C-38.44196456 18.94768331 -32.28457429 14.89455517 -26.07250977 10.91894531 C-22.93789946 8.91273694 -19.84321403 6.88986741 -16.796875 4.75 C-15.87390625 4.110625 -14.9509375 3.47125 -14 2.8125 C-13.236875 2.26207031 -12.47375 1.71164063 -11.6875 1.14453125 C-7.70814268 -0.55016598 -4.22384317 -1.1809655 0 0 Z " fill="#1C275A" transform="translate(315,138)"/>
<path d="M0 0 C4.94102854 0.68050094 9.16537211 2.69772707 13.6875 4.6875 C36.11415719 14.3007679 59.76274755 21.00730717 84 24 C84.6899707 24.09643799 85.37994141 24.19287598 86.09082031 24.29223633 C95.05823856 25.39715729 104.10720253 25.10803575 113.125 25.0625 C114.86197788 25.05747515 116.59895716 25.05291398 118.3359375 25.04882812 C122.55732688 25.03790014 126.77864764 25.02068978 131 25 C131 25.66 131 26.32 131 27 C120.50631011 31.96775745 110.39461517 35.65033434 99 38 C98.10410156 38.19335938 97.20820313 38.38671875 96.28515625 38.5859375 C82.02878419 40.38281674 66.84158913 39.88923179 53 36 C52.04222656 35.75636719 51.08445313 35.51273437 50.09765625 35.26171875 C35.82499899 31.13067529 21.76555463 23.17956021 11 13 C10.49936035 12.52820313 9.9987207 12.05640625 9.48291016 11.5703125 C6.22182208 8.47463467 2.97905442 5.37088363 0 2 C0 1.34 0 0.68 0 0 Z " fill="#472817" transform="translate(51,225)"/>
<path d="M0 0 C1.03189453 0.00424484 2.06378906 0.00848969 3.12695312 0.01286316 C6.39740967 0.02955074 9.66723217 0.0671848 12.9375 0.10546875 C15.16535563 0.12052839 17.393221 0.13421455 19.62109375 0.14648438 C25.0601093 0.17942165 30.49875933 0.22952125 35.9375 0.29296875 C35.39026317 3.6675959 34.8826 5.37531875 32.9375 8.29296875 C30.03588867 8.69360352 30.03588867 8.69360352 26.35546875 8.734375 C25.70427567 8.74758286 25.05308258 8.76079071 24.38215637 8.7743988 C22.29639499 8.81534441 20.2110725 8.83696114 18.125 8.85546875 C16.04977656 8.87932189 13.97496288 8.90759921 11.89997864 8.94725037 C10.00925274 8.98266518 8.11825561 9.00259 6.22729492 9.02172852 C2.97541444 9.28984274 0.79487145 9.73892084 -2.0625 11.29296875 C-3.43269523 12.85759737 -3.43269523 12.85759737 -4.30078125 14.77734375 C-4.81801758 15.80988281 -4.81801758 15.80988281 -5.34570312 16.86328125 C-5.68537109 17.58257812 -6.02503906 18.301875 -6.375 19.04296875 C-6.73400391 19.74679688 -7.09300781 20.450625 -7.46289062 21.17578125 C-9.73653213 25.83566365 -10.0625 27.67550585 -10.0625 33.29296875 C0.1675 33.62296875 10.3975 33.95296875 20.9375 34.29296875 C18.9375 41.29296875 18.9375 41.29296875 17.9375 42.29296875 C16.46037502 42.40164548 14.97813828 42.44199649 13.49707031 42.45410156 C12.55228821 42.46370911 11.6075061 42.47331665 10.63409424 42.48321533 C9.60499939 42.48746521 8.57590454 42.49171509 7.515625 42.49609375 C6.46348816 42.50179382 5.41135132 42.5074939 4.32733154 42.5133667 C2.0945334 42.52283489 -0.13827884 42.52935786 -2.37109375 42.53320312 C-5.78410391 42.54288817 -9.19650688 42.5738864 -12.609375 42.60546875 C-14.77603808 42.61200052 -16.94270548 42.61725031 -19.109375 42.62109375 C-20.13037292 42.63344055 -21.15137085 42.64578735 -22.20330811 42.6585083 C-31.06665293 42.63072469 -31.06665293 42.63072469 -35.0625 39.29296875 C-37.80314678 35.76928004 -37.53081053 31.55308392 -37.0625 27.29296875 C-35.16045072 17.54064333 -29.13819744 10.43777869 -21.34765625 4.58203125 C-14.1496647 0.52162576 -8.11936769 -0.12740374 0 0 Z " fill="#1D285A" transform="translate(468.0625,137.70703125)"/>
<path d="M0 0 C-2.88269702 1.92179802 -4.79611802 2.63321318 -8.09008789 3.52124023 C-9.66039261 3.94881371 -9.66039261 3.94881371 -11.26242065 4.38502502 C-12.4042984 4.6898027 -13.54617615 4.99458038 -14.72265625 5.30859375 C-15.91545197 5.63145859 -17.10824768 5.95432343 -18.33718872 6.28697205 C-21.57382368 7.16160296 -24.8117331 8.03117206 -28.05041122 8.89818573 C-30.7310184 9.61668768 -33.41053219 10.33921975 -36.09005833 11.06174088 C-56.07201296 16.44893367 -76.07616462 21.75246004 -96.10546875 26.9609375 C-96.79561066 27.14043442 -97.48575256 27.31993134 -98.19680786 27.50486755 C-102.79155173 28.69604619 -107.39387564 29.85384053 -112 31 C-111.14812625 26.50323366 -108.60730218 24.28829676 -105.3125 21.3125 C-104.73306641 20.78575684 -104.15363281 20.25901367 -103.55664062 19.71630859 C-93.85274968 11.11987029 -82.97607507 4.92757283 -71 0 C-70.26910156 -0.30550781 -69.53820312 -0.61101562 -68.78515625 -0.92578125 C-48.9211951 -8.3604692 -19.16512256 -10.22889239 0 0 Z " fill="#482917" transform="translate(166,74)"/>
<path d="M0 0 C1.32 0 2.64 0 4 0 C3.38722388 2.96175123 2.74627478 4.38058783 1 7 C1.99 7.495 1.99 7.495 3 8 C3 8.99 3 9.98 3 11 C2.113125 10.979375 1.22625 10.95875 0.3125 10.9375 C-4.16101467 12.37240093 -4.97901052 14.57072411 -7.1171875 18.578125 C-8.07735255 21.21220612 -8.1676624 23.21877662 -8 26 C-2.39455541 27.41407767 2.50123761 26.61229144 8 25 C10.54906626 23.12567495 10.54906626 23.12567495 12 21 C14.70879335 19.64560332 17.00933268 19.93498549 20 20 C20.99 21.98 20.99 21.98 22 24 C20.68 24.99 19.36 25.98 18 27 C24.7857936 26.45136137 31.35009036 25.45732062 38 24 C38.33 24.99 38.66 25.98 39 27 C39.79664063 26.855625 40.59328125 26.71125 41.4140625 26.5625 C43.00347656 26.2840625 43.00347656 26.2840625 44.625 26 C46.19121094 25.7215625 46.19121094 25.7215625 47.7890625 25.4375 C50.90574865 25.01284203 53.85930812 24.92454794 57 25 C57 25.99 57 26.98 57 28 C58.72926874 27.68806536 60.45841044 27.37542638 62.1875 27.0625 C63.15042969 26.88847656 64.11335937 26.71445313 65.10546875 26.53515625 C67.74239972 26.0476265 70.3719905 25.53328895 73 25 C73.33 25.66 73.66 26.32 74 27 C75.15757812 26.71125 76.31515625 26.4225 77.5078125 26.125 C79.04678731 25.74964029 80.58585478 25.37466035 82.125 25 C82.88554688 24.80921875 83.64609375 24.6184375 84.4296875 24.421875 C94.82521802 21.91260901 94.82521802 21.91260901 99 24 C99.33 24.99 99.66 25.98 100 27 C101.98 27 103.96 27 106 27 C105.67 27.99 105.34 28.98 105 30 C103.12612523 30.3396019 101.25083303 30.67138691 99.375 31 C97.80878906 31.2784375 97.80878906 31.2784375 96.2109375 31.5625 C93.07236722 31.99013975 90.16177121 32.1930151 87 32 C86.54625 31.46375 86.0925 30.9275 85.625 30.375 C84.820625 29.694375 84.820625 29.694375 84 29 C82.08733459 29.43622194 80.17629606 29.89067052 78.296875 30.453125 C75.05106427 31.22593708 71.98309088 31.08220504 68.6640625 31 C64.85830328 31 61.12451158 31.43872599 57.34765625 31.87890625 C55 32 55 32 52 31 C52 30.34 52 29.68 52 29 C50.82244141 29.2165625 50.82244141 29.2165625 49.62109375 29.4375 C44.00389036 30.42998747 38.70502463 31.2593193 33 31 C33 30.34 33 29.68 33 29 C32.41734375 29.144375 31.8346875 29.28875 31.234375 29.4375 C24.53172058 30.95508213 17.86792679 31.71083565 11 31 C10.01 30.34 9.02 29.68 8 29 C5.73217839 29.2362903 5.73217839 29.2362903 3.3125 29.9375 C-1.58749439 31.03355138 -5.10488682 31.2023085 -10 30 C-12.36288919 27.71333305 -12.95614189 26.13157432 -14 23 C-14.66 23.598125 -15.32 24.19625 -16 24.8125 C-24.23586729 30.8178199 -35.01357394 32.19261653 -45 32 C-45.495 30.02 -45.495 30.02 -46 28 C-46.85722656 28.26554687 -47.71445312 28.53109375 -48.59765625 28.8046875 C-49.74105469 29.15789062 -50.88445313 29.51109375 -52.0625 29.875 C-53.18785156 30.22304687 -54.31320312 30.57109375 -55.47265625 30.9296875 C-59 32 -59 32 -62.5625 32.59765625 C-67.56524592 34.63854919 -69.2315847 38.04284859 -71.9375 42.5625 C-72.97707279 44.20220676 -74.02131711 45.83896151 -75.0703125 47.47265625 C-75.57079102 48.25656738 -76.07126953 49.04047852 -76.58691406 49.84814453 C-83.68665845 60.6596765 -83.68665845 60.6596765 -90 62.5625 C-90.99 62.706875 -91.98 62.85125 -93 63 C-93.66 62.34 -94.32 61.68 -95 61 C-95 53.4816636 -91.03102059 48.11632135 -85.91796875 42.859375 C-81.53235031 38.83474442 -76.91392933 35.44261258 -71.84765625 32.32421875 C-69.72172226 30.96517293 -69.72172226 30.96517293 -68 28 C-68.80824219 28.2165625 -69.61648438 28.433125 -70.44921875 28.65625 C-71.51785156 28.9346875 -72.58648438 29.213125 -73.6875 29.5 C-74.74324219 29.7784375 -75.79898438 30.056875 -76.88671875 30.34375 C-79.71142672 30.9391715 -82.12836708 31.12786492 -85 31 C-85.33 30.34 -85.66 29.68 -86 29 C-88.97 29 -91.94 29 -95 29 C-92.65025865 25.47538798 -91.12608655 25.22674539 -87.109375 24.33984375 C-84.38288252 23.90057552 -81.75429748 23.86228513 -79 24 C-78.67 24.66 -78.34 25.32 -78 26 C-76.865625 25.855625 -75.73125 25.71125 -74.5625 25.5625 C-70.04646944 24.99698633 -65.52452819 24.49225191 -61 24 C-61.33 25.32 -61.66 26.64 -62 28 C-59.6239729 27.54655971 -57.24928419 27.08740741 -54.875 26.625 C-53.87726562 26.43550781 -53.87726562 26.43550781 -52.859375 26.2421875 C-49.7392938 25.63040687 -46.76551939 24.92108826 -43.75 23.90625 C-40.40515173 22.80397046 -37.49804041 22.86007838 -34 23 C-33.34 24.32 -32.68 25.64 -32 27 C-22.41328432 25.14962289 -16.05106444 21.72469231 -10.5 13.5625 C-10.005 12.716875 -9.51 11.87125 -9 11 C-11.64 11 -14.28 11 -17 11 C-17 10.01 -17 9.02 -17 8 C-15.91332031 8.01353516 -15.91332031 8.01353516 -14.8046875 8.02734375 C-9.01183949 7.99332942 -9.01183949 7.99332942 -4.07421875 5.375 C-2.5472224 3.47905629 -2.5472224 3.47905629 -1.31640625 1.49609375 C-0.88199219 1.00238281 -0.44757813 0.50867188 0 0 Z M-42 26 C-42 26.66 -42 27.32 -42 28 C-40.35 28 -38.7 28 -37 28 C-37 27.34 -37 26.68 -37 26 C-38.65 26 -40.3 26 -42 26 Z M90 26 C90 26.66 90 27.32 90 28 C91.65 28 93.3 28 95 28 C94.67 27.34 94.34 26.68 94 26 C92.68 26 91.36 26 90 26 Z M-76 39 C-86.31438504 47.36481267 -86.31438504 47.36481267 -92 59 C-87.64927683 57.63803448 -85.68208626 55.85124639 -82.9375 52.25 C-82.25558594 51.36054688 -81.57367187 50.47109375 -80.87109375 49.5546875 C-78.81847558 46.75215663 -76.85474687 43.93668254 -75 41 C-75.33 40.34 -75.66 39.68 -76 39 Z " fill="#1C2548" transform="translate(647,149)"/>
<path d="M0 0 C-0.835628 4.62409693 -3.6483501 6.77676317 -7.0625 9.75 C-7.63033203 10.25660156 -8.19816406 10.76320312 -8.78320312 11.28515625 C-10.1819865 12.53113136 -11.59010733 13.76660973 -13 15 C-11.78376953 16.34771484 -11.78376953 16.34771484 -10.54296875 17.72265625 C-7.71184783 21.13421201 -7.18196533 23.34541737 -7.45703125 27.75390625 C-8.45332686 31.87527299 -10.71867214 34.41279918 -14 37 C-19.55081781 40.33286283 -25.66302086 40.72034854 -32 40 C-33.155 39.505 -34.31 39.01 -35.5 38.5 C-39.00587007 37.60831594 -39.00587007 37.60831594 -41.546875 39.6484375 C-43.3251019 41.11316197 -45.06692912 42.62342885 -46.765625 44.1796875 C-49 46 -49 46 -52 46 C-51.68276924 42.94918504 -51.11098219 42.09333887 -48.71484375 40.078125 C-47.79832031 39.47484375 -46.88179687 38.8715625 -45.9375 38.25 C-44.55884766 37.32960938 -44.55884766 37.32960938 -43.15234375 36.390625 C-42.08693359 35.70226562 -42.08693359 35.70226562 -41 35 C-41.495 33.515 -41.495 33.515 -42 32 C-42.78228195 25.29472614 -42.78228195 25.29472614 -40.765625 21.95703125 C-38.27730458 18.9698149 -36.74911429 17.24970476 -33 16 C-28.43812214 15.74656234 -25.12848928 15.99830823 -21 18 C-21.804375 17.4225 -22.60875 16.845 -23.4375 16.25 C-25.97866739 14.01873107 -26.65120368 13.25543229 -27 10 C-22.35342126 6.67363966 -17.65304267 4.35461301 -12.375 2.1875 C-11.62476563 1.86330078 -10.87453125 1.53910156 -10.1015625 1.20507812 C-9.37453125 0.90408203 -8.6475 0.60308594 -7.8984375 0.29296875 C-7.24536621 0.0199292 -6.59229492 -0.25311035 -5.91943359 -0.53442383 C-3.62282941 -1.09148618 -2.21896558 -0.73379471 0 0 Z M-10.6953125 4.75 C-11.76845703 5.29140625 -11.76845703 5.29140625 -12.86328125 5.84375 C-13.98283203 6.41609375 -13.98283203 6.41609375 -15.125 7 C-15.87910156 7.3815625 -16.63320313 7.763125 -17.41015625 8.15625 C-19.27524766 9.10060008 -21.13786055 10.04984228 -23 11 C-22.67 11.66 -22.34 12.32 -22 13 C-19.23004986 14.04883001 -19.23004986 14.04883001 -16 14 C-13.15184115 12.25131841 -13.15184115 12.25131841 -10.6875 9.6875 C-9.82511719 8.86636719 -8.96273437 8.04523438 -8.07421875 7.19921875 C-5.96962066 5.17953717 -5.96962066 5.17953717 -5 3 C-7.40059817 3 -8.56072417 3.66576466 -10.6953125 4.75 Z M-36 21 C-38.71394035 24.25672842 -39.03938009 25.51956287 -38.6875 29.8125 C-38.3471875 31.3903125 -38.3471875 31.3903125 -38 33 C-37.01 32.34 -36.02 31.68 -35 31 C-34.26393501 27.43230448 -34.26393501 27.43230448 -34 24 C-33.01 24 -32.02 24 -31 24 C-31.33 25.32 -31.66 26.64 -32 28 C-30.82460004 27.07347299 -29.65989423 26.13336613 -28.5 25.1875 C-27.8503125 24.66542969 -27.200625 24.14335937 -26.53125 23.60546875 C-24.65490872 22.00795167 -24.65490872 22.00795167 -25 19 C-29.80286447 17.77136025 -32.1010262 17.83866989 -36 21 Z M-18 18 C-19.57784089 20.56399145 -20.00538452 21.87346378 -19.875 24.9375 C-20 28 -20 28 -21.625 30.8125 C-24.50011016 33.46062778 -26.13260127 33.83885839 -30 34 C-32.375 33.5625 -32.375 33.5625 -34 33 C-34.33 33.99 -34.66 34.98 -35 36 C-31.05349633 37.97325184 -26.30133287 37.44349901 -22 37 C-18.12236115 35.06118057 -14.96293399 32.92586799 -13 29 C-12.47081976 25.37658528 -12.22228595 22.13122044 -14.375 19 C-15.96587907 17.82530086 -15.96587907 17.82530086 -18 18 Z M-23 23 C-25.04119788 24.61594832 -27.04072937 26.2856382 -29 28 C-29 28.66 -29 29.32 -29 30 C-29.99 30.495 -29.99 30.495 -31 31 C-26.68607774 30.5206753 -24.83430453 29.2542015 -22 26 C-22.33 25.01 -22.66 24.02 -23 23 Z " fill="#20274A" transform="translate(564,142)"/>
<path d="M0 0 C4.78770673 0.06883588 9.57453659 0.15678029 14.36157227 0.26245117 C15.99005409 0.29570536 17.61865131 0.32373584 19.24731445 0.34643555 C21.58855361 0.37997357 23.92873486 0.43228585 26.26953125 0.48828125 C26.99775589 0.49467117 27.72598053 0.5010611 28.47627258 0.50764465 C33.51250946 0.65414157 33.51250946 0.65414157 35.9831543 2.40698242 C37 4 37 4 37 6 C37.66 6.33 38.32 6.66 39 7 C38.34 7 37.68 7 37 7 C37 7.66 37 8.32 37 9 C39.88085938 8.95117188 39.88085938 8.95117188 42.76171875 8.90234375 C45 9 45 9 47.34049988 9.49327087 C49.88183774 9.9774859 52.20787315 10.15552372 54.7902832 10.20532227 C56.17114861 10.2352401 56.17114861 10.2352401 57.57991028 10.26576233 C58.5602977 10.28247482 59.54068512 10.29918732 60.55078125 10.31640625 C61.56472458 10.33718735 62.57866791 10.35796844 63.62333679 10.37937927 C66.85299085 10.44461114 70.08272421 10.50363702 73.3125 10.5625 C75.50586748 10.60571029 77.69922703 10.64932538 79.89257812 10.69335938 C85.26163562 10.80026544 90.6307715 10.90208021 96 11 C96 11.33 96 11.66 96 12 C67.40520494 15.02133684 38.76130398 12.27936054 11 5 C9.74574219 4.67386719 8.49148437 4.34773437 7.19921875 4.01171875 C4.79097951 3.36605359 2.39175212 2.70379309 0 2 C0 1.34 0 0.68 0 0 Z " fill="#2EA5A9" transform="translate(73,218)"/>
<path d="M0 0 C0 0.33 0 0.66 0 1 C-3.96 1 -7.92 1 -12 1 C-12 1.66 -12 2.32 -12 3 C-10.8553125 2.938125 -10.8553125 2.938125 -9.6875 2.875 C-7 3 -7 3 -4 5 C-4 5.66 -4 6.32 -4 7 C-2.700625 7.12375 -1.40125 7.2475 -0.0625 7.375 C2.15234375 7.5859375 2.15234375 7.5859375 4 8 C4.495 8.99 4.495 8.99 5 10 C3.10416667 9.85416667 1.20833333 9.70833333 -0.6875 9.5625 C-1.8940625 9.47097656 -3.100625 9.37945312 -4.34375 9.28515625 C-6.51127272 9.116108 -8.67825956 8.93944111 -10.84375 8.74609375 C-22.86830725 7.70550707 -34.94121962 7.41991722 -47 7 C-47.33 6.34 -47.66 5.68 -48 5 C-40.60140811 3.39613105 -33.20275768 2.27206188 -25.6875 1.375 C-24.04406616 1.17716919 -24.04406616 1.17716919 -22.36743164 0.9753418 C-14.86724406 0.11415348 -7.55259663 -0.40540777 0 0 Z " fill="#31A1A4" transform="translate(119,101)"/>
<path d="M0 0 C1.32 0 2.64 0 4 0 C3.38722388 2.96175123 2.74627478 4.38058783 1 7 C1.66 7.33 2.32 7.66 3 8 C3 8.99 3 9.98 3 11 C1.61941406 11.07541016 1.61941406 11.07541016 0.2109375 11.15234375 C-3.17195658 11.69262157 -3.17195658 11.69262157 -4.8984375 14.50390625 C-5.38570312 15.51324219 -5.87296875 16.52257812 -6.375 17.5625 C-6.87773438 18.57441406 -7.38046875 19.58632812 -7.8984375 20.62890625 C-8.26195312 21.41136719 -8.62546875 22.19382813 -9 23 C-10.32 21.35 -11.64 19.7 -13 18 C-11.68 15.69 -10.36 13.38 -9 11 C-11.64 11 -14.28 11 -17 11 C-17 10.01 -17 9.02 -17 8 C-15.91332031 8.01353516 -15.91332031 8.01353516 -14.8046875 8.02734375 C-9.01183949 7.99332942 -9.01183949 7.99332942 -4.07421875 5.375 C-2.5472224 3.47905629 -2.5472224 3.47905629 -1.31640625 1.49609375 C-0.88199219 1.00238281 -0.44757812 0.50867188 0 0 Z " fill="#182049" transform="translate(647,149)"/>
<path d="M0 0 C13.10395519 -0.34233845 25.96668596 0.71174393 39 2 C39 2.66 39 3.32 39 4 C36.77570079 5.11214961 35.17909118 5.28547272 32.7109375 5.53515625 C31.85113281 5.62216797 30.99132812 5.70917969 30.10546875 5.79882812 C29.20441406 5.88583984 28.30335938 5.97285156 27.375 6.0625 C26.49714844 6.15337891 25.61929688 6.24425781 24.71484375 6.33789062 C19.44741195 6.85837237 14.29250444 7.0925263 9 7 C9.33 5.02 9.66 3.04 10 1 C6.7 1 3.4 1 0 1 C0 0.67 0 0.34 0 0 Z " fill="#452F1F" transform="translate(143,134)"/>
<path d="M0 0 C-0.47122748 6.9113364 -3.20636006 12.72204161 -6 19 C-7.231394 15.30581799 -6.64432764 12.7943739 -6 9 C-6.99 9.33 -7.98 9.66 -9 10 C-9.66 9.34 -10.32 8.68 -11 8 C-11.99 8 -12.98 8 -14 8 C-14.66 7.34 -15.32 6.68 -16 6 C-13.7101766 4.9955866 -11.4183401 3.99632388 -9.125 3 C-8.14853516 2.57074219 -8.14853516 2.57074219 -7.15234375 2.1328125 C-2.2265625 0 -2.2265625 0 0 0 Z " fill="#25A0A1" transform="translate(230,189)"/>
<path d="M0 0 C0.33 1.32 0.66 2.64 1 4 C-2.65584241 6.43722827 -3.96168342 6.10137241 -8.25 5.6875 C-9.9825 5.52121094 -9.9825 5.52121094 -11.75 5.3515625 C-12.8225 5.23554688 -13.895 5.11953125 -15 5 C-16.175625 4.88785156 -16.175625 4.88785156 -17.375 4.7734375 C-19.25 4.5625 -19.25 4.5625 -22 4 C-22.33 3.34 -22.66 2.68 -23 2 C-15.26940505 0.64290496 -7.85546636 -0.31918373 0 0 Z " fill="#2AA2A8" transform="translate(94,163)"/>
<path d="M0 0 C3.88191648 0.02043114 5.28407578 0.23243381 8.09375 2.984375 C9.83506447 5.51070829 11.39060917 8.03239296 12.8125 10.75 C11.8225 11.245 11.8225 11.245 10.8125 11.75 C6.125 8.13671875 6.125 8.13671875 4.8125 6.75 C4.8125 5.76 4.8125 4.77 4.8125 3.75 C1.85585481 2.2716774 -0.92979737 2.68967217 -4.1875 2.75 C-4.38085938 3.38808594 -4.57421875 4.02617187 -4.7734375 4.68359375 C-5.03382813 5.50988281 -5.29421875 6.33617187 -5.5625 7.1875 C-5.81773437 8.01121094 -6.07296875 8.83492187 -6.3359375 9.68359375 C-7.1875 11.75 -7.1875 11.75 -9.1875 12.75 C-9.125625 13.4925 -9.06375 14.235 -9 15 C-9.21844296 18.20383006 -10.09000005 19.39031256 -12.1875 21.75 C-13.1775 21.42 -14.1675 21.09 -15.1875 20.75 C-13.90341958 17.78831624 -12.60895835 14.83128392 -11.3125 11.875 C-10.94769531 11.03324219 -10.58289063 10.19148437 -10.20703125 9.32421875 C-9.85253906 8.51855469 -9.49804688 7.71289062 -9.1328125 6.8828125 C-8.80812988 6.13918457 -8.48344727 5.39555664 -8.14892578 4.62939453 C-6.14740244 0.71681793 -4.18080559 0.29986468 0 0 Z " fill="#1E264C" transform="translate(365.1875,137.25)"/>
<path d="M0 0 C1.45823212 -0.0270043 2.91660675 -0.04639787 4.375 -0.0625 C5.18710938 -0.07410156 5.99921875 -0.08570312 6.8359375 -0.09765625 C9 0 9 0 11 1 C12.19625 0.938125 13.3925 0.87625 14.625 0.8125 C17.86941143 0.76615127 19.8118959 1.21194077 22.625 2.8125 C27.36805072 5.47460752 32.33821247 6.23728997 37.6328125 7.2734375 C41.64954535 8.14015712 45.21909471 9.41201978 49 11 C45.0575273 12.50154329 42.05778189 11.48989997 38.06640625 10.453125 C37.39262436 10.28125671 36.71884247 10.10938843 36.02464294 9.93231201 C33.86820331 9.38038734 31.71537087 8.81566857 29.5625 8.25 C27.44819644 7.70318482 25.33321365 7.15906429 23.21810913 6.61535645 C21.83080492 6.25861587 20.4437779 5.90079553 19.05703735 5.54187012 C12.73065892 3.91082491 6.37525599 2.42880616 0 1 C0 0.67 0 0.34 0 0 Z " fill="#369FA3" transform="translate(169,119)"/>
<path d="M0 0 C8.91 0 17.82 0 27 0 C27.33 0.66 27.66 1.32 28 2 C25.77228658 2.50643553 23.54275924 3.0048962 21.3125 3.5 C19.45044922 3.91765625 19.45044922 3.91765625 17.55078125 4.34375 C14.57601782 4.89354126 12.00631398 5.13795705 9 5 C9 4.34 9 3.68 9 3 C7.88625 2.87625 6.7725 2.7525 5.625 2.625 C2 2 2 2 0 0 Z " fill="#442C1D" transform="translate(155,193)"/>
<path d="M0 0 C0.38317886 0.42632721 0.76635773 0.85265442 1.16114807 1.29190063 C5.49508784 5.60156603 8.58794806 6.6828322 14.65403748 6.67977905 C16.07632408 6.63332748 16.07632408 6.63332748 17.52734375 6.5859375 C18.51626114 6.57744781 19.50517853 6.56895813 20.52406311 6.56021118 C23.66301343 6.5267935 26.7993346 6.45153475 29.9375 6.375 C32.07353044 6.34488542 34.20960141 6.31751224 36.34570312 6.29296875 C41.56468951 6.22704145 46.7821569 6.12681209 52 6 C52.495 6.99 52.495 6.99 53 8 C46.25568885 8.07612011 39.51148866 8.12862932 32.7668457 8.16479492 C30.47285828 8.17987308 28.17889963 8.2003387 25.88500977 8.22631836 C22.58602795 8.26274358 19.2874276 8.27973631 15.98828125 8.29296875 C14.45207878 8.31619453 14.45207878 8.31619453 12.88484192 8.33988953 C3.75558228 8.34204296 3.75558228 8.34204296 0 5 C-0.33 4.01 -0.66 3.02 -1 2 C-0.67 1.34 -0.34 0.68 0 0 Z " fill="#1D234C" transform="translate(433,172)"/>
<path d="M0 0 C1.65 0 3.3 0 5 0 C3.125 5.75 3.125 5.75 2 8 C-11.86 8 -25.72 8 -40 8 C-40 7.67 -40 7.34 -40 7 C-38.89487061 6.97494385 -37.78974121 6.9498877 -36.65112305 6.92407227 C-32.55285956 6.82993491 -28.45476306 6.72972959 -24.35668945 6.62768555 C-22.58264063 6.58436066 -20.80855077 6.54268381 -19.03442383 6.50268555 C-16.48506295 6.4449238 -13.9359082 6.38124638 -11.38671875 6.31640625 C-10.59287277 6.29969376 -9.79902679 6.28298126 -8.98112488 6.26576233 C-5.75316923 6.17882282 -3.08248901 6.02749634 0 5 C0 4.01 0 3.02 0 2 C0 1.34 0 0.68 0 0 Z " fill="#1E244B" transform="translate(292,172)"/>
<path d="M0 0 C0.99 0 1.98 0 3 0 C1.70623456 5.05744671 -0.06326716 7.59569414 -4 11 C-7.41015625 12.6171875 -7.41015625 12.6171875 -11.0625 13.875 C-12.87427734 14.52082031 -12.87427734 14.52082031 -14.72265625 15.1796875 C-17.7837349 15.94586928 -19.13488863 16.15747641 -22 15 C-21.01 15 -20.02 15 -19 15 C-19.33 13.35 -19.66 11.7 -20 10 C-19.34 10 -18.68 10 -18 10 C-18 10.66 -18 11.32 -18 12 C-17.01 11.67 -16.02 11.34 -15 11 C-13.60560336 10.93334624 -12.20830125 10.91461801 -10.8125 10.9375 C-8.9253125 10.9684375 -8.9253125 10.9684375 -7 11 C-7 10.34 -7 9.68 -7 9 C-6.21625 8.566875 -5.4325 8.13375 -4.625 7.6875 C-1.57194396 5.72482112 -0.99049126 4.42169707 0 1 C0 0.67 0 0.34 0 0 Z " fill="#2A9C9B" transform="translate(220,208)"/>
<path d="M0 0 C0.33 0.66 0.66 1.32 1 2 C12.88 2 24.76 2 37 2 C37.33 1.34 37.66 0.68 38 0 C38 0.66 38 1.32 38 2 C41.63 2 45.26 2 49 2 C49 2.33 49 2.66 49 3 C42.46478143 3.7511826 36.02605382 4.15890687 29.44921875 4.16796875 C28.15646782 4.17296135 28.15646782 4.17296135 26.83760071 4.17805481 C25.03521248 4.18307266 23.23281513 4.18546475 21.43041992 4.18530273 C18.67676767 4.1875086 15.92350456 4.205771 13.16992188 4.22460938 C11.40885552 4.22754057 9.64778729 4.2295272 7.88671875 4.23046875 C7.06894455 4.23765427 6.25117035 4.24483978 5.40861511 4.25224304 C1.1483774 4.23518031 -2.11274124 3.9702277 -6 2 C-6 1.67 -6 1.34 -6 1 C-4.02 0.67 -2.04 0.34 0 0 Z " fill="#412212" transform="translate(47,129)"/>
<path d="M0 0 C0.99 0.99 1.98 1.98 3 3 C2.01 4.485 2.01 4.485 1 6 C0.34 6 -0.32 6 -1 6 C-1.66 8.31 -2.32 10.62 -3 13 C0.27152618 12.89013032 3.54190114 12.7595003 6.8125 12.625 C7.74126953 12.5940625 8.67003906 12.563125 9.62695312 12.53125 C10.51962891 12.49257812 11.41230469 12.45390625 12.33203125 12.4140625 C13.56530151 12.36693115 13.56530151 12.36693115 14.82348633 12.31884766 C17.28952937 12.11626378 17.28952937 12.11626378 20 10 C20 11.32 20 12.64 20 14 C11.75 14 3.5 14 -5 14 C-3.875 7.25 -3.875 7.25 -1.9375 3.625 C-1.57527344 2.93664062 -1.21304687 2.24828125 -0.83984375 1.5390625 C-0.42412109 0.77722656 -0.42412109 0.77722656 0 0 Z " fill="#21284C" transform="translate(402,166)"/>
<path d="M0 0 C1.32 0.33 2.64 0.66 4 1 C3.67 1.66 3.34 2.32 3 3 C3.66 3.66 4.32 4.32 5 5 C1.63806274 6.03775874 -1.30014408 6.05397878 -4.8046875 5.9140625 C-5.93994873 5.87079834 -7.07520996 5.82753418 -8.24487305 5.78295898 C-9.44281494 5.73083252 -10.64075684 5.67870605 -11.875 5.625 C-13.69608276 5.55164429 -13.69608276 5.55164429 -15.55395508 5.47680664 C-23.71550698 5.13517045 -31.86095834 4.70708865 -40 4 C-40 3.67 -40 3.34 -40 3 C-26.3121658 2.81640759 -12.67200967 3.38508665 1 4 C0.505 2.02 0.505 2.02 0 0 Z " fill="#469FA5" transform="translate(156,168)"/>
<path d="M0 0 C3.3 0 6.6 0 10 0 C9.42266085 5.6634221 7.29383632 10.27163948 4.9375 15.375 C4.56044922 16.20644531 4.18339844 17.03789062 3.79492188 17.89453125 C2.86956644 19.93265588 1.9378163 21.9675867 1 24 C0.34 23.01 -0.32 22.02 -1 21 C-0.443125 19.9275 0.11375 18.855 0.6875 17.75 C3.42502096 12.29458189 5.7018824 6.65110885 8 1 C5.36 1 2.72 1 0 1 C0 0.67 0 0.34 0 0 Z " fill="#23274C" transform="translate(429,138)"/>
<path d="M0 0 C0.33 0.66 0.66 1.32 1 2 C-0.0625 4.5625 -0.0625 4.5625 -2 7 C-5.17224785 8.01241953 -7.11447954 8.26326284 -10.3125 7.3125 C-12.39993284 5.68894113 -12.65660347 4.57547398 -13 2 C-10 2 -7 2 -4 2 C-1.84971696 1.05021103 -1.84971696 1.05021103 0 0 Z " fill="#1A244B" transform="translate(542,169)"/>
<path d="M0 0 C0 0.66 0 1.32 0 2 C-1.32 2.33 -2.64 2.66 -4 3 C-4 3.33 -4 3.66 -4 4 C-10.27 4 -16.54 4 -23 4 C-23 3.01 -23 2.02 -23 1 C-22.18015625 1.01160156 -21.3603125 1.02320312 -20.515625 1.03515625 C-19.43796875 1.04417969 -18.3603125 1.05320312 -17.25 1.0625 C-16.18265625 1.07410156 -15.1153125 1.08570312 -14.015625 1.09765625 C-9.23297459 0.94277767 -4.87446202 -0.09373965 0 0 Z " fill="#1EA7AB" transform="translate(105,103)"/>
<path d="M0 0 C4 4.75 4 4.75 4 7 C-6.23 7 -16.46 7 -27 7 C-27.66 5.35 -28.32 3.7 -29 2 C-28.01 2.33 -27.02 2.66 -26 3 C-26 3.99 -26 4.98 -26 6 C-17.42 5.67 -8.84 5.34 0 5 C0 3.35 0 1.7 0 0 Z " fill="#1F244A" transform="translate(336,173)"/>
<path d="M0 0 C11.22 0.33 22.44 0.66 34 1 C34 1.33 34 1.66 34 2 C33.23856689 1.99476318 32.47713379 1.98952637 31.69262695 1.98413086 C28.23259308 1.96330475 24.77257241 1.95032187 21.3125 1.9375 C20.11431641 1.92912109 18.91613281 1.92074219 17.68164062 1.91210938 C16.52470703 1.90888672 15.36777344 1.90566406 14.17578125 1.90234375 C12.58117065 1.89448853 12.58117065 1.89448853 10.9543457 1.88647461 C8.02288198 1.91605043 8.02288198 1.91605043 5.30151367 2.56860352 C3 3 3 3 0 2 C0 1.34 0 0.68 0 0 Z " fill="#49A0A5" transform="translate(73,218)"/>
<path d="M0 0 C10.23 0 20.46 0 31 0 C30.34 2.31 29.68 4.62 29 7 C28.67 7 28.34 7 28 7 C28 5.02 28 3.04 28 1 C14.635 1.495 14.635 1.495 1 2 C0.67 1.34 0.34 0.68 0 0 Z " fill="#232A4F" transform="translate(458,172)"/>
<path d="M0 0 C2.63563302 2.35738437 4.10906659 4.78537321 5.6875 7.9375 C6.12449219 8.79214844 6.56148437 9.64679688 7.01171875 10.52734375 C8 13 8 13 8 17 C6.02 16.67 4.04 16.34 2 16 C3.32 15.67 4.64 15.34 6 15 C6 14.01 6 13.02 6 12 C5.01 11.67 4.02 11.34 3 11 C2.67 11.66 2.34 12.32 2 13 C1.34 13 0.68 13 0 13 C0.08378906 12.39671875 0.16757813 11.7934375 0.25390625 11.171875 C0.35574219 10.37265625 0.45757812 9.5734375 0.5625 8.75 C0.66691406 7.96109375 0.77132812 7.1721875 0.87890625 6.359375 C1.00027349 3.99467126 0.69633257 2.2488963 0 0 Z " fill="#339B9E" transform="translate(219,117)"/>
<path d="M0 0 C0.33 0.33 0.66 0.66 1 1 C3.69235776 1.23678716 6.36498156 1.42198025 9.0625 1.5625 C10.20041992 1.62727539 10.20041992 1.62727539 11.36132812 1.69335938 C13.24065438 1.79973633 15.12030244 1.90039934 17 2 C17 2.33 17 2.66 17 3 C8.42 3 -0.16 3 -9 3 C-9.33 2.34 -9.66 1.68 -10 1 C-6.74696956 -0.62651522 -3.60774398 -0.11453156 0 0 Z " fill="#3A9DA8" transform="translate(81,105)"/>
<path d="M0 0 C1.98 0.99 1.98 0.99 4 2 C4 2.66 4 3.32 4 4 C4.66 4 5.32 4 6 4 C6 4.99 6 5.98 6 7 C6.66 7 7.32 7 8 7 C11 12.75 11 12.75 11 15 C11.99 15.33 12.98 15.66 14 16 C13.67 16.99 13.34 17.98 13 19 C9.34331035 15.67039956 6.85833756 11.96290031 4.25 7.8125 C3.83878906 7.17119141 3.42757813 6.52988281 3.00390625 5.86914062 C0 1.14372664 0 1.14372664 0 0 Z " fill="#1D2346" transform="translate(294,156)"/>
<path d="M0 0 C1.52519276 0.08937803 3.04681929 0.24537146 4.5625 0.4375 C5.38878906 0.53933594 6.21507813 0.64117187 7.06640625 0.74609375 C7.70449219 0.82988281 8.34257813 0.91367188 9 1 C9 1.33 9 1.66 9 2 C-0.03698325 3.1741788 -8.86661545 4.28994872 -18 4 C-17.34 3.34 -16.68 2.68 -16 2 C-12.875 2.375 -12.875 2.375 -10 3 C-9.67 2.34 -9.34 1.68 -9 1 C-7.700625 1.020625 -6.40125 1.04125 -5.0625 1.0625 C-3.70834367 1.08399454 -2.35243917 1.07148199 -1 1 C-0.67 0.67 -0.34 0.34 0 0 Z " fill="#3C2512" transform="translate(115,143)"/>
<path d="M0 0 C1.32 2.31 2.64 4.62 4 7 C3.01 7 2.02 7 1 7 C1 6.34 1 5.68 1 5 C0.34 5 -0.32 5 -1 5 C-1 4.01 -1 3.02 -1 2 C-2.60463449 2.31008884 -4.20869231 2.62316287 -5.8125 2.9375 C-7.15248047 3.19853516 -7.15248047 3.19853516 -8.51953125 3.46484375 C-11.11397171 3.97741153 -11.11397171 3.97741153 -14 5 C-14 4.34 -14 3.68 -14 3 C-9.62850344 -0.66641647 -5.39741292 -0.31749488 0 0 Z " fill="#20264D" transform="translate(315,138)"/>
<path d="M0 0 C10.15558679 0.18838357 18.60166597 2.47724962 28 6 C24.41247479 7.25414522 21.99491358 6.73271684 18.359375 5.78515625 C17.28945312 5.51123047 16.21953125 5.23730469 15.1171875 4.95507812 C13.45042969 4.51325195 13.45042969 4.51325195 11.75 4.0625 C10.62335938 3.77181641 9.49671875 3.48113281 8.3359375 3.18164062 C5.55498826 2.46283595 2.77661416 1.73534019 0 1 C0 0.67 0 0.34 0 0 Z " fill="#359A9B" transform="translate(190,124)"/>
<path d="M0 0 C0.33 0.99 0.66 1.98 1 3 C-0.12073862 3.83905565 -1.24674547 4.67107831 -2.375 5.5 C-3.31472656 6.19609375 -3.31472656 6.19609375 -4.2734375 6.90625 C-6 8 -6 8 -8 8 C-8.33 8.66 -8.66 9.32 -9 10 C-10.64142963 11.0409066 -12.30712215 12.04504326 -14 13 C-14 12.01 -14 11.02 -14 10 C-11.69921875 8.02734375 -11.69921875 8.02734375 -8.6875 5.9375 C-7.70136719 5.24527344 -6.71523437 4.55304688 -5.69921875 3.83984375 C-3.80641123 2.5496667 -1.90597228 1.27064819 0 0 Z " fill="#3D251A" transform="translate(80,81)"/>
<path d="M0 0 C0.99 0.33 1.98 0.66 3 1 C2.68546875 1.47308594 2.3709375 1.94617188 2.046875 2.43359375 C-2.30176003 9.15302077 -6.17021517 15.90959794 -7 24 C-7.33 24 -7.66 24 -8 24 C-8.05399736 22.54207116 -8.09279177 21.08357288 -8.125 19.625 C-8.15980469 18.40683594 -8.15980469 18.40683594 -8.1953125 17.1640625 C-8 15 -8 15 -6 13 C-5.71125 11.9275 -5.4225 10.855 -5.125 9.75 C-3.91545368 5.71817893 -2.45558283 3.3559632 0 0 Z " fill="#1C2349" transform="translate(464,147)"/>
<path d="M0 0 C0.66 0.66 1.32 1.32 2 2 C1.566875 2.8353125 1.566875 2.8353125 1.125 3.6875 C-0.04289743 6.08817805 -1.02959179 8.51332896 -2 11 C-3 13.5 -3 13.5 -4 16 C-3.01 16.33 -2.02 16.66 -1 17 C-2.98 17 -4.96 17 -7 17 C-5.1668733 11.00067626 -2.92678249 5.55079437 0 0 Z " fill="#22274B" transform="translate(348,163)"/>
<path d="M0 0 C0.66 0.33 1.32 0.66 2 1 C-1.85877273 4.39939502 -5.31465562 6.80075672 -10 9 C-11.25369523 9.74380661 -12.50365769 10.49393727 -13.75 11.25 C-14.8225 11.8275 -15.895 12.405 -17 13 C-17.66 12.67 -18.32 12.34 -19 12 C-15.88327524 9.9661749 -12.75539064 7.95021524 -9.625 5.9375 C-8.73554688 5.35677734 -7.84609375 4.77605469 -6.9296875 4.17773438 C-6.07890625 3.63310547 -5.228125 3.08847656 -4.3515625 2.52734375 C-3.56604004 2.01937256 -2.78051758 1.51140137 -1.97119141 0.98803711 C-1.32069824 0.66198486 -0.67020508 0.33593262 0 0 Z " fill="#22284C" transform="translate(427,139)"/>
<path d="M0 0 C0.33 0.99 0.66 1.98 1 3 C-1 6 -1 6 -3.0234375 6.6171875 C-9.3855877 7.31469898 -9.3855877 7.31469898 -12.5625 5.6875 C-14 4 -14 4 -14 2 C-13.2265625 2.2165625 -13.2265625 2.2165625 -12.4375 2.4375 C-9.31490429 3.15809901 -6.17449308 3.57266439 -3 4 C-2.01 2.68 -1.02 1.36 0 0 Z " fill="#151C45" transform="translate(744,174)"/>
<path d="M0 0 C3.70293685 -0.33663062 5.39534381 -0.47736015 8.375 1.875 C10 4 10 4 10 6 C9.34 6 8.68 6 8 6 C7.67 5.34 7.34 4.68 7 4 C4.69 4 2.38 4 0 4 C0 2.68 0 1.36 0 0 Z M-3 2 C-2.34 2 -1.68 2 -1 2 C-0.67 2.99 -0.34 3.98 0 5 C-1.65 4.67 -3.3 4.34 -5 4 C-4.34 3.34 -3.68 2.68 -3 2 Z " fill="#279E9F" transform="translate(205,105)"/>
<path d="M0 0 C-0.20625 0.61875 -0.4125 1.2375 -0.625 1.875 C-0.74875 2.57625 -0.8725 3.2775 -1 4 C-0.34 4.66 0.32 5.32 1 6 C-1.31 6 -3.62 6 -6 6 C-6 4.68 -6 3.36 -6 2 C-6.66 1.34 -7.32 0.68 -8 0 C-4.71303767 -0.79953138 -3.28976808 -1.09658936 0 0 Z " fill="#171E3F" transform="translate(686,174)"/>
<path d="M0 0 C-1.0725 0.4125 -2.145 0.825 -3.25 1.25 C-6.52265074 2.63739149 -8.65517162 4.27999908 -11 7 C-12.32 5.68 -13.64 4.36 -15 3 C-13.25531628 2.29911844 -11.50398839 1.61475991 -9.75 0.9375 C-8.77546875 0.55464844 -7.8009375 0.17179687 -6.796875 -0.22265625 C-3.95992605 -1.01113787 -2.70590448 -1.02437812 0 0 Z " fill="#3F2419" transform="translate(108,72)"/>
<path d="M0 0 C7.09434233 -0.09733092 13.98194143 -0.10087193 21 1 C21 1.33 21 1.66 21 2 C15.06 2.33 9.12 2.66 3 3 C3 2.34 3 1.68 3 1 C2.01 0.67 1.02 0.34 0 0 Z " fill="#3C2416" transform="translate(114,200)"/>
<path d="M0 0 C0.33 0.99 0.66 1.98 1 3 C1.66 3 2.32 3 3 3 C4.7265625 4.96875 4.7265625 4.96875 6.625 7.5 C7.25664062 8.3353125 7.88828125 9.170625 8.5390625 10.03125 C9.26222656 11.00578125 9.26222656 11.00578125 10 12 C9.34 12.66 8.68 13.32 8 14 C6.46690087 12.23977508 4.94881299 10.46646537 3.4375 8.6875 C2.16712891 7.20830078 2.16712891 7.20830078 0.87109375 5.69921875 C0.25363281 4.80847656 -0.36382812 3.91773438 -1 3 C-0.67 2.01 -0.34 1.02 0 0 Z " fill="#19214A" transform="translate(364,166)"/>
<path d="M0 0 C-1.46596725 3.9429464 -3.37308275 5.01834588 -7.125 6.75 C-8.49011719 7.39195312 -8.49011719 7.39195312 -9.8828125 8.046875 C-10.93082031 8.51867187 -10.93082031 8.51867187 -12 9 C-12 9.66 -12 10.32 -12 11 C-12.99 11 -13.98 11 -15 11 C-13.49471893 6.95007711 -11.11269686 5.4746607 -7.5 3.25 C-6.03046875 2.32960937 -6.03046875 2.32960937 -4.53125 1.390625 C-2 0 -2 0 0 0 Z " fill="#20294D" transform="translate(260,169)"/>
<path d="M0 0 C0.33 0.99 0.66 1.98 1 3 C0.67 3.33 0.34 3.66 0 4 C1.65 4.33 3.3 4.66 5 5 C5 5.33 5 5.66 5 6 C1.04 6 -2.92 6 -7 6 C-7 5.34 -7 4.68 -7 4 C-4.625 2.3125 -4.625 2.3125 -2 1 C-1.34 1.33 -0.68 1.66 0 2 C0 1.34 0 0.68 0 0 Z " fill="#34A3AA" transform="translate(105,103)"/>
<path d="M0 0 C0.33 0.66 0.66 1.32 1 2 C-2.3 2.33 -5.6 2.66 -9 3 C-9.33 2.34 -9.66 1.68 -10 1 C-3.44680851 -1.53191489 -3.44680851 -1.53191489 0 0 Z " fill="#1F234E" transform="translate(591,178)"/>
<path d="M0 0 C3.67033927 3.27708863 5.69281189 6.71522208 8 11 C4.6278951 9.55481219 2.30119637 7.87649547 0 5 C-0.25 2.25 -0.25 2.25 0 0 Z " fill="#192143" transform="translate(370,138)"/>
<path d="M0 0 C0.66 0 1.32 0 2 0 C1.57316761 1.58624235 1.13303842 3.1689098 0.6875 4.75 C0.44386719 5.63171875 0.20023438 6.5134375 -0.05078125 7.421875 C-1.02125331 10.05772505 -2.21005644 11.85407326 -4 14 C-3.8864371 12.35333797 -3.75882619 10.70763918 -3.625 9.0625 C-3.55539063 8.14597656 -3.48578125 7.22945312 -3.4140625 6.28515625 C-3.27742187 5.53105469 -3.14078125 4.77695313 -3 4 C-2.34 3.67 -1.68 3.34 -1 3 C-0.67 2.01 -0.34 1.02 0 0 Z " fill="#2D999C" transform="translate(227,194)"/>
<path d="M0 0 C1.65 0 3.3 0 5 0 C3.515 5.445 3.515 5.445 2 11 C1.67 11 1.34 11 1 11 C0.67 7.37 0.34 3.74 0 0 Z " fill="#3A2116" transform="translate(30,172)"/>
<path d="M0 0 C0.66 0 1.32 0 2 0 C2 0.66 2 1.32 2 2 C3.65 1.67 5.3 1.34 7 1 C7 1.99 7 2.98 7 4 C2.56923077 6.09230769 2.56923077 6.09230769 -0.3125 5.625 C-0.869375 5.41875 -1.42625 5.2125 -2 5 C-1.01 5 -0.02 5 1 5 C0.67 3.35 0.34 1.7 0 0 Z " fill="#27A2A4" transform="translate(200,218)"/>
<path d="M0 0 C0.33 0.66 0.66 1.32 1 2 C-2.3 2.66 -5.6 3.32 -9 4 C-9.33 3.01 -9.66 2.02 -10 1 C-6.61981469 -0.04005702 -3.5219721 -0.08004482 0 0 Z " fill="#534B3D" transform="translate(182,193)"/>
<path d="M0 0 C0.33 0.66 0.66 1.32 1 2 C-0.8125 4.5 -0.8125 4.5 -3 7 C-3.99 7 -4.98 7 -6 7 C-5.8125 5.1875 -5.8125 5.1875 -5 3 C-2.4375 1.25 -2.4375 1.25 0 0 Z " fill="#1C2441" transform="translate(518,181)"/>
<path d="M0 0 C1.125 1.625 1.125 1.625 2 4 C1.07647305 8.19784979 0.64025108 9.57316595 -3 12 C-2.68950274 10.56206608 -2.3765224 9.1246682 -2.0625 7.6875 C-1.88847656 6.88699219 -1.71445312 6.08648437 -1.53515625 5.26171875 C-1 3 -1 3 0 0 Z " fill="#3A2516" transform="translate(36,132)"/>
<path d="M0 0 C1.485 0.99 1.485 0.99 3 2 C3.99 2.33 4.98 2.66 6 3 C7.6875 4.5625 7.6875 4.5625 9 6 C3.5388601 5.64766839 3.5388601 5.64766839 1 5 C-0.5 2.9375 -0.5 2.9375 -1 1 C-0.67 0.67 -0.34 0.34 0 0 Z " fill="#17233E" transform="translate(636,174)"/>
<path d="M0 0 C0.33 0.66 0.66 1.32 1 2 C-0.125 4.5625 -0.125 4.5625 -2 7 C-4.6875 7.8125 -4.6875 7.8125 -7 8 C-7 7.01 -7 6.02 -7 5 C-6.21625 4.731875 -5.4325 4.46375 -4.625 4.1875 C-1.71885077 3.15185568 -1.71885077 3.15185568 0 0 Z " fill="#161C46" transform="translate(542,169)"/>
<path d="M0 0 C-1 1.5 -1 1.5 -3 3 C-5.71846235 3.27345479 -8.25677199 3.13491285 -11 3 C-11.33 2.34 -11.66 1.68 -12 1 C-7.9472484 0.01751476 -4.16138263 -0.08159574 0 0 Z " fill="#45A4AE" transform="translate(83,164)"/>
<path d="M0 0 C1.32 0 2.64 0 4 0 C3.42655063 2.86724686 3.1385485 3.8614515 1 6 C0.01 5.34 -0.98 4.68 -2 4 C-1.34 2.68 -0.68 1.36 0 0 Z " fill="#161D40" transform="translate(647,149)"/>
<path d="M0 0 C3.0390625 -0.29296875 3.0390625 -0.29296875 6.625 -0.1875 C7.81351563 -0.16042969 9.00203125 -0.13335937 10.2265625 -0.10546875 C11.14179688 -0.07066406 12.05703125 -0.03585938 13 0 C12.67 0.66 12.34 1.32 12 2 C8.83984375 2.4140625 8.83984375 2.4140625 4.9375 2.625 C3.64714844 2.69976562 2.35679687 2.77453125 1.02734375 2.8515625 C0.02832031 2.90054688 -0.97070312 2.94953125 -2 3 C-1.34 2.01 -0.68 1.02 0 0 Z " fill="#329CA0" transform="translate(172,226)"/>
<path d="M0 0 C1.65 0.33 3.3 0.66 5 1 C4.2575 1.680625 4.2575 1.680625 3.5 2.375 C1.77390663 3.87635519 1.77390663 3.87635519 2 6 C0.35 6 -1.3 6 -3 6 C-2.67 5.34 -2.34 4.68 -2 4 C-1.34 4 -0.68 4 0 4 C0 2.68 0 1.36 0 0 Z " fill="#151E46" transform="translate(564,173)"/>
<path d="M0 0 C1.98 0 3.96 0 6 0 C6 1.65 6 3.3 6 5 C5.01 5 4.02 5 3 5 C3 4.34 3 3.68 3 3 C2.34 2.67 1.68 2.34 1 2 C0.67 1.34 0.34 0.68 0 0 Z " fill="#182242" transform="translate(607,172)"/>
<path d="M0 0 C0.33 0.66 0.66 1.32 1 2 C-4.41538462 2.36923077 -4.41538462 2.36923077 -7.375 0.5 C-7.91125 0.005 -8.4475 -0.49 -9 -1 C-5.20980534 -2.26339822 -3.62477616 -1.49719015 0 0 Z " fill="#27A1A6" transform="translate(192,122)"/>
<path d="M0 0 C0.33 0.99 0.66 1.98 1 3 C-0.81392049 6.15049348 -2.66476748 7.61990379 -6 9 C-5.52797514 4.75177626 -3.03344482 2.80010291 0 0 Z " fill="#37241D" transform="translate(60,96)"/>
<path d="M0 0 C3 1 3 1 4.25 2.8125 C5.11637742 5.33943414 4.88492145 6.52221994 4 9 C1.47740939 7.02579865 1.0070192 6.03254358 0.3125 2.8125 C0.209375 1.884375 0.10625 0.95625 0 0 Z " fill="#3D2617" transform="translate(33,189)"/>
<path d="M0 0 C0.66 0 1.32 0 2 0 C2.33 2.64 2.66 5.28 3 8 C1.68 7.67 0.36 7.34 -1 7 C-0.67 4.69 -0.34 2.38 0 0 Z " fill="#131E52" transform="translate(553,164)"/>
<path d="M0 0 C1.28485596 5.13942384 0.22194431 6.37835584 -2 11 C-2.66 10.01 -3.32 9.02 -4 8 C-2.68 5.36 -1.36 2.72 0 0 Z " fill="#1B2147" transform="translate(432,151)"/>
<path d="M0 0 C-0.99 1.485 -0.99 1.485 -2 3 C-5.125 3.1875 -5.125 3.1875 -8 3 C-8.33 2.34 -8.66 1.68 -9 1 C-6.04335481 -0.4783226 -3.25770263 -0.06032783 0 0 Z " fill="#427884" transform="translate(80,105)"/>
<path d="M0 0 C0.66 0.33 1.32 0.66 2 1 C1.67 1.66 1.34 2.32 1 3 C1.99 3 2.98 3 4 3 C4 4.32 4 5.64 4 7 C1 6 1 6 -1 4 C-0.625 1.875 -0.625 1.875 0 0 Z " fill="#2A3356" transform="translate(604,174)"/>
<path d="M0 0 C3.75376152 1.25125384 4.24073289 2.5652404 6 6 C6 6.66 6 7.32 6 8 C5.34 8 4.68 8 4 8 C4 7.01 4 6.02 4 5 C3.34 5 2.68 5 2 5 C0.375 3 0.375 3 -1 1 C-0.67 0.67 -0.34 0.34 0 0 Z " fill="#19244B" transform="translate(318,146)"/>
<path d="M0 0 C1.32 0.33 2.64 0.66 4 1 C3.67 1.66 3.34 2.32 3 3 C3.66 3.66 4.32 4.32 5 5 C3.68 5.33 2.36 5.66 1 6 C0.4465236 3.92446352 0 2.15634036 0 0 Z " fill="#2DA0A5" transform="translate(156,168)"/>
<path d="M0 0 C0.66 0.66 1.32 1.32 2 2 C0.63016497 5.16115776 0.0109362 5.9927092 -3 8 C-1.125 1.125 -1.125 1.125 0 0 Z " fill="#1A1F44" transform="translate(348,163)"/>
</svg>
